<svg width="32" height="32" viewBox="0 0 32 32" fill="none" xmlns="http://www.w3.org/2000/svg">
<path fill-rule="evenodd" clip-rule="evenodd" d="M5.2566 4.33631C5.80726 4.29395 6.288 4.70601 6.33035 5.25667L6.56702 8.33336H20.5132C21.794 8.33335 22.8127 8.33335 23.6189 8.39455C24.4349 8.45651 25.1472 8.58684 25.7687 8.91659C27.2343 9.69423 28.2187 11.1482 28.3964 12.7978C28.4718 13.4973 28.3282 14.2071 28.0827 14.9877C27.8401 15.7589 27.4618 16.7047 26.9861 17.894L26.4371 19.2664C26.4175 19.3154 26.3982 19.3637 26.3792 19.4113C25.952 20.4805 25.6575 21.2175 25.1857 21.8032C24.5589 22.5814 23.7132 23.154 22.7578 23.4469C22.0388 23.6675 21.2452 23.6672 20.0938 23.6667C20.0425 23.6667 19.9905 23.6667 19.9378 23.6667H12.1888C11.3484 23.6667 10.6688 23.6667 10.1131 23.6301C9.54045 23.5923 9.03288 23.5126 8.54635 23.322C7.3735 22.8623 6.41737 21.9769 5.86913 20.8428C5.6417 20.3723 5.52336 19.8723 5.44178 19.3042C5.36262 18.753 5.3105 18.0754 5.24604 17.2374L4.64478 9.42099C4.64421 9.41443 4.6437 9.40786 4.64326 9.40126L4.33625 5.41006C4.29389 4.8594 4.70595 4.37867 5.2566 4.33631ZM6.72087 10.3334L7.23755 17.0502C7.30523 17.93 7.35279 18.5417 7.42147 19.0199C7.48879 19.4887 7.56826 19.7623 7.66978 19.9723C7.99872 20.6528 8.5724 21.1841 9.27611 21.4599C9.49328 21.545 9.77222 21.6032 10.2448 21.6344C10.7268 21.6662 11.3404 21.6667 12.2228 21.6667H19.9378C21.306 21.6667 21.776 21.6561 22.1714 21.5348C22.7447 21.3591 23.2521 21.0155 23.6282 20.5486C23.8876 20.2265 24.072 19.7941 24.5802 18.5236L25.1135 17.1903C25.6083 15.9532 25.9578 15.0778 26.1748 14.3877C26.3916 13.6985 26.4392 13.3023 26.4079 13.012C26.3013 12.0223 25.7106 11.1499 24.8313 10.6833C24.5734 10.5465 24.1878 10.4435 23.4675 10.3888C22.7461 10.334 21.8035 10.3334 20.4711 10.3334H6.72087Z" fill="#5E2913"/>
<path fill-rule="evenodd" clip-rule="evenodd" d="M1.66675 5.33331C1.66675 4.78103 2.11446 4.33331 2.66675 4.33331H5.33341C5.8857 4.33331 6.33341 4.78103 6.33341 5.33331C6.33341 5.8856 5.8857 6.33331 5.33341 6.33331H2.66675C2.11446 6.33331 1.66675 5.8856 1.66675 5.33331Z" fill="#5E2913"/>
<path d="M7.33341 25.6667C6.41294 25.6667 5.66675 26.4129 5.66675 27.3334C5.66675 28.2538 6.41294 29 7.33341 29C8.25389 29 9.00008 28.2538 9.00008 27.3334C9.00008 26.4129 8.25389 25.6667 7.33341 25.6667Z" fill="#5E2913"/>
<path d="M23.3334 25.6667C22.4129 25.6667 21.6667 26.4129 21.6667 27.3334C21.6667 28.2538 22.4129 29 23.3334 29C24.2539 29 25.0001 28.2538 25.0001 27.3334C25.0001 26.4129 24.2539 25.6667 23.3334 25.6667Z" fill="#5E2913"/>
</svg>
