<svg width="32" height="32" viewBox="0 0 32 32" fill="none" xmlns="http://www.w3.org/2000/svg">
<path fill-rule="evenodd" clip-rule="evenodd" d="M4 12C4 11.4477 4.44772 11 5 11L26.3333 11C26.8856 11 27.3333 11.4477 27.3333 12C27.3333 12.5523 26.8856 13 26.3333 13L5 13C4.44772 13 4 12.5523 4 12Z" fill="#5E2913"/>
<path fill-rule="evenodd" clip-rule="evenodd" d="M4 20C4 19.4477 4.44772 19 5 19L26.3333 19C26.8856 19 27.3333 19.4477 27.3333 20C27.3333 20.5523 26.8856 21 26.3333 21L5 21C4.44772 21 4 20.5523 4 20Z" fill="#5E2913"/>
</svg>
