<svg width="30" height="30" viewBox="0 0 30 30" fill="none" xmlns="http://www.w3.org/2000/svg">
<path fill-rule="evenodd" clip-rule="evenodd" d="M20.9078 14.6461C21.0262 14.8672 21.0262 15.1328 20.9078 15.3539C20.883 15.4004 20.8242 15.4758 20.6509 15.6113C20.4775 15.747 20.2361 15.9083 19.8826 16.1441L13.8878 20.1406C13.4611 20.425 13.1651 20.622 12.9327 20.7523C12.6961 20.8851 12.5888 20.9109 12.5363 20.9135C12.26 20.9268 11.9988 20.787 11.8567 20.5497C11.8296 20.5046 11.7916 20.401 11.7708 20.1305C11.7504 19.8649 11.7501 19.5093 11.7501 18.9965L11.7501 11.0035C11.7501 10.4907 11.7504 10.1351 11.7708 9.86947C11.7916 9.59896 11.8296 9.49537 11.8567 9.45022C11.9988 9.21294 12.26 9.07315 12.5363 9.0865C12.5888 9.08904 12.6961 9.11484 12.9327 9.24762C13.1651 9.37801 13.4611 9.57496 13.8878 9.85938L19.8826 13.8559C20.2361 14.0916 20.4775 14.2529 20.6509 14.3887C20.8242 14.5242 20.883 14.5996 20.9078 14.6461ZM21.7895 15.8257C22.0656 15.3099 22.0656 14.6901 21.7895 14.1742C21.6665 13.9443 21.4778 13.7659 21.2671 13.6011C21.0601 13.4391 20.7867 13.2568 20.4539 13.035L14.4248 9.01555C14.02 8.74568 13.692 8.527 13.4221 8.37556C13.1526 8.2243 12.8773 8.10182 12.5846 8.08767C11.9399 8.05651 11.3304 8.38268 10.9988 8.93634C10.8482 9.1878 10.7974 9.48477 10.7737 9.79293C10.75 10.1015 10.7501 10.4957 10.7501 10.9823L10.7501 19.0177C10.7501 19.5042 10.75 19.8985 10.7737 20.207C10.7974 20.5152 10.8482 20.8122 10.9988 21.0636C11.3304 21.6173 11.9399 21.9435 12.5846 21.9123C12.8773 21.8981 13.1526 21.7757 13.4221 21.6244C13.692 21.473 14.02 21.2543 14.4248 20.9844L20.4539 16.965C20.7867 16.7431 21.0601 16.5609 21.2671 16.3989C21.4778 16.2341 21.6665 16.0556 21.7895 15.8257Z" fill="#926C40"/>
<path fill-rule="evenodd" clip-rule="evenodd" d="M15 2.99997C8.37258 2.99997 3 8.37256 3 15C3 21.6274 8.37258 27 15 27C21.6274 27 27 21.6274 27 15C27 8.37256 21.6274 2.99997 15 2.99997ZM2 15C2 7.82027 7.8203 1.99997 15 1.99997C22.1797 1.99997 28 7.82027 28 15C28 22.1797 22.1797 28 15 28C7.8203 28 2 22.1797 2 15Z" fill="#926C40"/>
</svg>
